<?xml version="1.0" encoding="utf-8"?>
<!-- Generator: Adobe Illustrator 24.1.2, SVG Export Plug-In . SVG Version: 6.00 Build 0)  -->
<svg version="1.1" id="Ebene_1" xmlns="http://www.w3.org/2000/svg" xmlns:xlink="http://www.w3.org/1999/xlink" x="0px" y="0px"
	 viewBox="0 0 241 241" style="enable-background:new 0 0 241 241;" xml:space="preserve">
<style type="text/css">
	.st0{display:none;fill:#FFFFFF;}
	.st1{fill:#f86f41;}
</style>
<path id="White" class="st0" d="M120.5,0.78c-66.2,0-120,53.8-120,120s53.8,120,120,120s120-53.8,120-120S186.7,0.78,120.5,0.78z
	 M120.5,233.78c-62.3,0-113-50.7-113-113s50.7-113,113-113s113,50.7,113,113S182.8,233.78,120.5,233.78z"/>

<g>
	<path class="st1" d="M59.75,141.3c-0.95,0-1.88-0.49-2.39-1.37c-1.77-3.01-3.09-6.25-3.92-9.65c-0.78-3.2-1.74-7.12-1.38-10.97
		c0.59-6.39,1.62-12,3.14-17.14c2.12-7.17,4.81-14.7,10.12-21.23c1.55-1.91,3.24-3.72,4.87-5.46l0.7-0.76
		c5.92-6.36,12.32-11.41,19.02-15c3.18-1.7,6.44-3.13,9.68-4.24c1.39-0.48,2.75-1.03,4.12-1.57c2.46-0.99,4.99-2,7.69-2.64
		c3.93-0.93,7.96-1.46,11.86-1.97c1.24-0.17,2.49-0.33,3.73-0.51l0.75-0.11c1.62-0.24,3.45-0.53,5.3-0.2l16.04,1.9
		c5.58,0.75,9.81,1.83,13.78,3.51c8.53,3.61,14.98,8.8,20.31,16.32c2.61,3.69,5.2,7.71,6.49,12.14c1.1,3.76,1.1,7.69,1.11,11.48
		l0.01,2.06c0.02,1.53-1.21,2.79-2.74,2.81H188c-1.52,0-2.76-1.22-2.78-2.74l-0.01-2.12c0-3.56-0.01-6.93-0.88-9.93
		c-1.07-3.64-3.37-7.2-5.7-10.5c-4.7-6.64-10.4-11.22-17.94-14.41c-3.49-1.48-7.29-2.44-12.32-3.11l-16.15-1.93
		c-1.11-0.19-2.35,0-3.65,0.2l-0.8,0.12c-1.26,0.18-2.52,0.35-3.79,0.51c-3.76,0.5-7.64,1.01-11.31,1.88
		c-2.29,0.54-4.53,1.44-6.9,2.39c-1.45,0.58-2.9,1.16-4.38,1.68c-2.96,1.02-5.94,2.33-8.87,3.89c-6.16,3.3-12.08,7.97-17.58,13.88
		l-0.71,0.76c-1.56,1.68-3.18,3.41-4.61,5.18c-4.69,5.77-7.15,12.69-9.1,19.3c-1.42,4.79-2.38,10.04-2.94,16.07
		c-0.27,2.93,0.56,6.35,1.23,9.09c0.72,2.92,1.83,5.66,3.32,8.2c0.78,1.32,0.34,3.02-0.99,3.8C60.71,141.18,60.23,141.3,59.75,141.3
		"/>
	<path class="st1" d="M110.8,192.66c-0.81,0-1.61-0.37-2.15-1.02l-4.98-6.1c-0.69,0-1.36-0.03-2.03-0.08l-5.49,5.62
		c-0.82,0.84-2.09,1.07-3.16,0.57l-7.54-3.53c-1.07-0.5-1.7-1.63-1.58-2.8l0.8-7.82c-0.47-0.48-0.92-0.98-1.36-1.5l-7.87,0.09h-0.03
		c-1.17,0-2.21-0.73-2.61-1.83l-2.84-7.82c-0.4-1.11-0.06-2.35,0.86-3.1l6.1-4.98c0-0.68,0.03-1.36,0.08-2.02l-5.62-5.49
		c-0.84-0.82-1.07-2.09-0.57-3.16l3.53-7.54c0.5-1.07,1.63-1.68,2.79-1.58l7.82,0.8c0.48-0.46,0.98-0.92,1.5-1.36l-0.09-7.87
		c-0.02-1.18,0.72-2.24,1.83-2.65l7.82-2.84c1.11-0.4,2.35-0.06,3.1,0.86l4.98,6.1c0.68,0,1.36,0.03,2.02,0.08l5.49-5.62
		c0.83-0.84,2.09-1.07,3.16-0.57l7.54,3.53c1.07,0.5,1.71,1.62,1.58,2.79l-0.8,7.82c0.46,0.48,0.92,0.97,1.36,1.5l7.87-0.09
		c1.15,0.05,2.24,0.72,2.65,1.83l2.83,7.83c0.4,1.11,0.06,2.35-0.86,3.1l-6.1,4.98c0,0.68-0.03,1.35-0.08,2.02l5.62,5.5
		c0.85,0.82,1.08,2.09,0.57,3.16l-3.53,7.53c-0.5,1.07-1.63,1.68-2.79,1.59l-7.82-0.8c-0.48,0.47-0.97,0.92-1.5,1.36l0.09,7.87
		c0.02,1.18-0.72,2.23-1.83,2.64l-7.82,2.83C111.44,192.6,111.12,192.66,110.8,192.66 M104.97,179.96c0.83,0,1.63,0.37,2.15,1.02
		l4.58,5.62l4.12-1.49l-0.08-7.26c-0.01-0.88,0.4-1.71,1.1-2.24c1.07-0.81,2.03-1.68,2.86-2.59c0.59-0.65,1.47-0.96,2.33-0.89
		l7.2,0.73l1.86-3.97l-5.18-5.06c-0.63-0.61-0.93-1.49-0.81-2.36c0.16-1.23,0.22-2.52,0.16-3.86c-0.04-0.88,0.34-1.72,1.02-2.28
		l5.62-4.58l-1.49-4.12l-7.26,0.09c-0.92-0.05-1.71-0.4-2.24-1.1c-0.81-1.07-1.68-2.03-2.6-2.86c-0.65-0.59-0.98-1.45-0.89-2.33
		l0.73-7.2l-3.97-1.86l-5.06,5.18c-0.61,0.63-1.49,0.93-2.36,0.81c-1.22-0.16-2.52-0.22-3.86-0.16c-0.89,0.05-1.72-0.34-2.28-1.02
		l-4.58-5.62l-4.12,1.49l0.08,7.26c0.01,0.88-0.4,1.71-1.09,2.24c-1.07,0.81-2.03,1.68-2.86,2.6c-0.59,0.65-1.47,0.96-2.33,0.89
		l-7.2-0.73l-1.85,3.97l5.17,5.06c0.63,0.61,0.93,1.48,0.81,2.36c-0.16,1.23-0.22,2.52-0.16,3.86c0.04,0.88-0.34,1.72-1.02,2.28
		l-5.62,4.58l1.49,4.12l7.26-0.08c0.75-0.06,1.71,0.4,2.24,1.1c0.8,1.06,1.68,2.02,2.6,2.86c0.65,0.59,0.98,1.45,0.89,2.33
		l-0.73,7.2l3.97,1.85l5.05-5.17c0.62-0.63,1.5-0.94,2.36-0.81c1.22,0.17,2.52,0.21,3.86,0.16
		C104.88,179.96,104.93,179.96,104.97,179.96 M103.85,174.21c-2.21,0-4.46-0.47-6.59-1.47c-7.8-3.65-11.19-12.97-7.53-20.78
		c3.65-7.8,12.97-11.18,20.78-7.53c3.78,1.77,6.65,4.9,8.07,8.82c1.42,3.93,1.23,8.17-0.54,11.95
		C115.38,170.87,109.74,174.21,103.85,174.21 M99.61,167.71c5.04,2.35,11.04,0.17,13.4-4.86c1.14-2.44,1.26-5.17,0.35-7.71
		c-0.92-2.53-2.76-4.55-5.2-5.69c-5.03-2.35-11.04-0.18-13.4,4.85C92.4,159.34,94.58,165.35,99.61,167.71"/>
	<path class="st1" d="M166.84,151.33c-0.82,0-1.62-0.36-2.15-1.02l-4.21-5.16c-0.48-0.01-0.96-0.03-1.44-0.06l-4.65,4.76
		c-0.82,0.84-2.09,1.07-3.16,0.57l-6.54-3.06c-1.07-0.5-1.71-1.62-1.58-2.79l0.67-6.62c-0.34-0.34-0.65-0.7-0.97-1.07l-6.66,0.08
		c-1.21,0.02-2.24-0.72-2.64-1.84l-2.46-6.79c-0.4-1.11-0.06-2.35,0.85-3.1l5.16-4.21c0.01-0.48,0.03-0.96,0.06-1.44l-4.76-4.65
		c-0.85-0.83-1.07-2.09-0.57-3.16l3.06-6.54c0.5-1.07,1.61-1.68,2.79-1.58l6.62,0.67c0.34-0.33,0.7-0.65,1.06-0.96l-0.08-6.66
		c-0.01-1.18,0.72-2.24,1.83-2.64l6.79-2.47c1.1-0.4,2.35-0.06,3.1,0.86l4.21,5.17c0.48,0,0.97,0.03,1.44,0.06l4.65-4.76
		c0.82-0.84,2.09-1.07,3.16-0.58l6.54,3.06c1.07,0.5,1.71,1.62,1.59,2.79l-0.67,6.62c0.33,0.34,0.65,0.7,0.97,1.06l6.66-0.07
		c1.24-0.03,2.24,0.72,2.64,1.83l2.46,6.8c0.4,1.11,0.06,2.35-0.85,3.1l-5.17,4.21c-0.01,0.48-0.02,0.96-0.06,1.44l4.76,4.65
		c0.84,0.82,1.07,2.09,0.57,3.16l-3.06,6.55c-0.5,1.07-1.62,1.69-2.8,1.58l-6.62-0.67c-0.34,0.33-0.7,0.65-1.07,0.97l0.08,6.66
		c0.01,1.18-0.72,2.24-1.83,2.64l-6.79,2.46C167.47,151.28,167.15,151.33,166.84,151.33 M161.78,139.58c0.83,0,1.62,0.37,2.15,1.02
		l3.81,4.68l3.09-1.12l-0.07-6.04c-0.01-0.88,0.4-1.71,1.1-2.25c0.9-0.68,1.72-1.42,2.43-2.2c0.59-0.65,1.45-0.96,2.33-0.89
		l5.99,0.61l1.39-2.98l-4.3-4.21c-0.63-0.61-0.93-1.49-0.81-2.36c0.14-1.04,0.19-2.15,0.13-3.28c-0.04-0.88,0.34-1.73,1.02-2.28
		l4.68-3.81l-1.12-3.09l-6.04,0.07c-0.88,0.09-1.71-0.4-2.24-1.1c-0.69-0.9-1.43-1.72-2.21-2.43c-0.65-0.59-0.98-1.46-0.89-2.33
		l0.61-5.99l-2.97-1.39l-4.21,4.31c-0.62,0.62-1.48,0.94-2.36,0.81c-1.03-0.14-2.14-0.19-3.28-0.13c-0.87,0.06-1.72-0.34-2.28-1.02
		l-3.82-4.68l-3.09,1.12l0.07,6.04c0.01,0.88-0.4,1.71-1.1,2.25c-0.9,0.68-1.72,1.42-2.44,2.2c-0.59,0.65-1.45,0.97-2.33,0.89
		l-5.99-0.61l-1.39,2.98l4.31,4.21c0.63,0.62,0.93,1.49,0.81,2.36c-0.14,1.04-0.19,2.14-0.14,3.28c0.04,0.88-0.34,1.72-1.02,2.28
		l-4.68,3.81l1.12,3.09l6.04-0.07c0.88-0.02,1.72,0.4,2.25,1.1c0.68,0.9,1.42,1.72,2.21,2.44c0.65,0.59,0.98,1.45,0.89,2.33
		l-0.61,5.99l2.97,1.39l4.21-4.31c0.61-0.62,1.49-0.93,2.36-0.81c1.04,0.15,2.15,0.2,3.28,0.14
		C161.68,139.58,161.73,139.58,161.78,139.58 M160.82,134.77c-1.93,0-3.86-0.43-5.66-1.27c-3.24-1.52-5.69-4.2-6.91-7.56
		c-1.22-3.36-1.05-6.99,0.46-10.23s4.2-5.69,7.56-6.91c3.36-1.22,6.99-1.05,10.23,0.46c3.24,1.52,5.69,4.2,6.91,7.56
		c1.22,3.36,1.05,6.99-0.46,10.23c-1.51,3.24-4.2,5.69-7.56,6.91C163.9,134.5,162.35,134.77,160.82,134.77 M160.83,113.56
		c-0.9,0-1.8,0.16-2.67,0.47c-1.97,0.71-3.54,2.14-4.42,4.04c-0.89,1.9-0.99,4.02-0.27,5.98c0.71,1.96,2.14,3.54,4.04,4.42
		c1.9,0.89,4.02,0.99,5.98,0.27c1.96-0.71,3.53-2.15,4.42-4.04c0.89-1.9,0.98-4.02,0.27-5.98c-0.71-1.97-2.15-3.54-4.04-4.42
		C163.09,113.8,161.96,113.56,160.83,113.56"/>
	<path class="st1" d="M126.84,78.7c-0.85,0-1.68-0.38-2.23-1.11c-0.92-1.23-0.67-2.97,0.56-3.88c3.38-2.53,5.32-5.5,5.77-8.83
		c0.83-6.16-3.55-11.86-3.59-11.92c-0.94-1.21-0.73-2.95,0.48-3.89c1.2-0.95,2.94-0.73,3.89,0.46c0.24,0.3,5.85,7.53,4.74,16.04
		c-0.64,4.89-3.32,9.12-7.95,12.58C128,78.52,127.42,78.7,126.84,78.7"/>
	<path class="st1" d="M150.22,80.98c-1.04,0-2.03-0.58-2.51-1.58c-4.34-9.05-14.81-6.08-15.25-5.95c-1.47,0.44-3.01-0.41-3.45-1.88
		c-0.43-1.47,0.41-3.02,1.88-3.45c5.32-1.58,16.74-1.74,21.83,8.87c0.66,1.38,0.08,3.04-1.31,3.7
		C151.03,80.9,150.63,80.98,150.22,80.98"/>
	<path class="st1" d="M113.79,101.75c-0.08,0-0.16,0-0.23-0.01c-1.53-0.13-2.66-1.47-2.54-3c0.04-0.51,0.1-1.02,0.16-1.52
		c0.45-3.83,0.74-6.35-12.69-10.95c-5.88-2.01-9.72-5.32-11.43-9.84c-2.82-7.48,1.56-15.29,1.74-15.62
		c0.76-1.33,2.46-1.79,3.79-1.03c1.33,0.76,1.79,2.45,1.04,3.78c-0.05,0.1-3.27,5.94-1.36,10.94c1.1,2.88,3.8,5.07,8.02,6.52
		c16.4,5.61,17.15,10.52,16.41,16.85c-0.05,0.44-0.11,0.88-0.14,1.34C116.43,100.65,115.22,101.75,113.79,101.75"/>
	<path class="st1" d="M88.89,101.75c-1.44,0-2.66-1.11-2.76-2.57c-0.7-9.43,10.47-17.02,11.75-17.86c1.28-0.84,3-0.48,3.84,0.8
		c0.84,1.28,0.48,3-0.8,3.84c-2.71,1.78-9.65,7.55-9.26,12.8c0.11,1.53-1.04,2.86-2.56,2.97C89.03,101.74,88.96,101.75,88.89,101.75
		"/>
	<path class="st1" d="M56.64,128.57c-0.5,0-1.01-0.13-1.46-0.41c-1.3-0.81-1.71-2.52-0.9-3.82l3.58-5.79
		c5.62-9.09,17.19-12.62,26.92-8.21c1.4,0.63,2.01,2.28,1.39,3.67c-0.64,1.4-2.28,2.01-3.67,1.38c-7.2-3.26-15.76-0.64-19.91,6.08
		l-3.58,5.79C58.48,128.1,57.57,128.57,56.64,128.57"/>
</g>
</svg>
