<?xml version="1.0" encoding="utf-8"?>
<!-- Generator: Adobe Illustrator 25.4.1, SVG Export Plug-In . SVG Version: 6.00 Build 0)  -->
<svg version="1.1" id="Ebene_1" xmlns="http://www.w3.org/2000/svg" xmlns:xlink="http://www.w3.org/1999/xlink" x="0px" y="0px"
	 viewBox="0 0 240 240" style="enable-background:new 0 0 240 240;" xml:space="preserve">
<style type="text/css">
	.st0{fill:#FFFFFF;}
</style>

<g>
<path class="st0" d="M195.6,175.4H44.4c-6.1,0-11-4.9-11-11V75.6c0-6.1,4.9-11,11-11h151.1c6.1,0,11,4.9,11,11v88.9
		C206.6,170.5,201.6,175.4,195.6,175.4z M44.4,70.6c-2.8,0-5,2.2-5,5v88.9c0,2.8,2.2,5,5,5h151.1c2.8,0,5-2.2,5-5V75.6
		c0-2.8-2.2-5-5-5H44.4z"/>
	<circle class="st0" cx="46.7" cy="78.4" r="2.1"/>
	<circle class="st0" cx="46.7" cy="161.7" r="2.1"/>
	<circle class="st0" cx="194.2" cy="78.4" r="2.1"/>
	<circle class="st0" cx="194.2" cy="161.7" r="2.1"/>
	<g>
<path class="st0" d="M129.4,105.9H56.1c-1.5,0-2.8-1.3-2.8-2.8s1.3-2.8,2.8-2.8h73.3c1.5,0,2.8,1.3,2.8,2.8S131,105.9,129.4,105.9
			z"/>
<path class="st0" d="M129.4,122.8H56.1c-1.5,0-2.8-1.3-2.8-2.8s1.3-2.8,2.8-2.8h73.3c1.5,0,2.8,1.3,2.8,2.8S131,122.8,129.4,122.8
			z"/>
<path class="st0" d="M129.4,139.7H56.1c-1.5,0-2.8-1.3-2.8-2.8s1.3-2.8,2.8-2.8h73.3c1.5,0,2.8,1.3,2.8,2.8S131,139.7,129.4,139.7
			z"/>
	</g>
	<g>
<path class="st0" d="M165.5,109.6v-4.9h5v4.9H165.5z M165.5,131.7v-19.4h5v19.4H165.5z"/>
	</g>
</g>
</svg>
