<?xml version="1.0" encoding="utf-8"?>
<!-- Generator: Adobe Illustrator 24.1.2, SVG Export Plug-In . SVG Version: 6.00 Build 0)  -->
<svg version="1.1" id="Ebene_1" xmlns="http://www.w3.org/2000/svg" xmlns:xlink="http://www.w3.org/1999/xlink" x="0px" y="0px"
	 viewBox="0 0 241 241" style="enable-background:new 0 0 241 241;" xml:space="preserve">
<style type="text/css">
	.st0{display:none;fill:#FFFFFF;}
	.st1{fill:#FFFFFF;}
</style>
<path id="White" class="st0" d="M120.5,0.78c-66.2,0-120,53.8-120,120s53.8,120,120,120s120-53.8,120-120S186.7,0.78,120.5,0.78z
	 M120.5,233.78c-62.3,0-113-50.7-113-113s50.7-113,113-113s113,50.7,113,113S182.8,233.78,120.5,233.78z"/>

<g>
	<path class="st1" d="M120.37,175.56c-30.36,0-55.06-24.7-55.06-55.06s24.7-55.06,55.06-55.06s55.06,24.7,55.06,55.06
		S150.73,175.56,120.37,175.56z M120.37,73.34c-26.01,0-47.17,21.16-47.17,47.17c0,26.01,21.16,47.17,47.17,47.17
		s47.17-21.16,47.17-47.17C167.54,94.5,146.38,73.34,120.37,73.34z"/>
	<g>
		<g>
			<path class="st1" d="M118.19,133.65c-3.05,0-4.78-1.81-4.78-4.86c0-3.05,1.64-6.84,5.85-11.06c3.63-3.62,6.43-6.34,6.43-10.8
				c0-3.71-2.64-5.61-6.18-5.61c-5.28,0-6.85,3.88-10.81,3.88c-2.06,0-3.38-1.4-3.38-4.37v-0.91c0-2.8,0.91-4.54,4.12-5.86
				c2.97-1.32,6.43-2.14,10.81-2.14c11.3,0,18.15,5.03,18.15,14.93c0,11.96-11.63,14.1-14.35,22.35c-0.99,2.97-2.81,4.45-5.45,4.45
				H118.19z M118.44,150.81c-3.79,0-6.76-2.88-6.76-6.59c0-3.71,2.97-6.68,6.76-6.68c3.71,0,6.77,2.97,6.77,6.68
				C125.2,147.92,122.15,150.81,118.44,150.81z"/>
		</g>
	</g>
</g>
</svg>
